<svg id="visual" viewBox="0 0 1440 320" width="1440" height="320" xmlns="http://www.w3.org/2000/svg" xmlns:xlink="http://www.w3.org/1999/xlink" version="1.1"><rect x="0" y="0" width="1440" height="320" fill="#140021"></rect><path d="M0 155L206 155L206 204L411 204L411 185L617 185L617 159L823 159L823 139L1029 139L1029 156L1234 156L1234 176L1440 176L1440 147L1440 321L1440 321L1234 321L1234 321L1029 321L1029 321L823 321L823 321L617 321L617 321L411 321L411 321L206 321L206 321L0 321Z" fill="#9900ff"></path><path d="M0 247L206 247L206 191L411 191L411 229L617 229L617 193L823 193L823 224L1029 224L1029 236L1234 236L1234 191L1440 191L1440 223L1440 321L1440 321L1234 321L1234 321L1029 321L1029 321L823 321L823 321L617 321L617 321L411 321L411 321L206 321L206 321L0 321Z" fill="#7700c6"></path><path d="M0 236L206 236L206 286L411 286L411 246L617 246L617 246L823 246L823 271L1029 271L1029 265L1234 265L1234 283L1440 283L1440 255L1440 321L1440 321L1234 321L1234 321L1029 321L1029 321L823 321L823 321L617 321L617 321L411 321L411 321L206 321L206 321L0 321Z" fill="#560090"></path></svg>